<svg width="32" height="32" viewBox="0 0 32 32" fill="none" xmlns="http://www.w3.org/2000/svg">
<path d="M15.9998 8.66675C16.2651 8.66675 16.5194 8.7721 16.707 8.95964C16.8945 9.14718 16.9998 9.40153 16.9998 9.66675V18.0001C16.9998 18.2653 16.8945 18.5197 16.707 18.7072C16.5194 18.8947 16.2651 19.0001 15.9998 19.0001C15.7346 19.0001 15.4803 18.8947 15.2927 18.7072C15.1052 18.5197 14.9998 18.2653 14.9998 18.0001V9.66675C14.9998 9.40153 15.1052 9.14718 15.2927 8.95964C15.4803 8.7721 15.7346 8.66675 15.9998 8.66675ZM15.9998 23.3307C16.3535 23.3307 16.6926 23.1903 16.9427 22.9402C17.1927 22.6902 17.3332 22.351 17.3332 21.9974C17.3332 21.6438 17.1927 21.3047 16.9427 21.0546C16.6926 20.8046 16.3535 20.6641 15.9998 20.6641C15.6462 20.6641 15.3071 20.8046 15.057 21.0546C14.807 21.3047 14.6665 21.6438 14.6665 21.9974C14.6665 22.351 14.807 22.6902 15.057 22.9402C15.3071 23.1903 15.6462 23.3307 15.9998 23.3307ZM15.9998 2.66675C23.3638 2.66675 29.3332 8.63608 29.3332 16.0001C29.3332 23.3641 23.3638 29.3334 15.9998 29.3334C13.8718 29.3363 11.7743 28.8279 9.88385 27.8507L4.78252 29.2734C4.4979 29.3528 4.19729 29.3552 3.91148 29.2802C3.62567 29.2052 3.36494 29.0555 3.15599 28.8466C2.94705 28.6377 2.79742 28.3769 2.72242 28.0911C2.64742 27.8053 2.64975 27.5047 2.72918 27.2201L4.15318 22.1227C3.17365 20.2307 2.66375 18.1307 2.66652 16.0001C2.66652 8.63608 8.63585 2.66675 15.9998 2.66675ZM15.9998 4.66675C12.9941 4.66675 10.1114 5.86079 7.98597 7.9862C5.86056 10.1116 4.66652 12.9943 4.66652 16.0001C4.66652 17.9601 5.16385 19.8441 6.09718 21.5161L6.29718 21.8761L4.81452 27.1881L10.1305 25.7054L10.4905 25.9054C12.003 26.7463 13.688 27.2297 15.4163 27.3185C17.1446 27.4073 18.8703 27.0991 20.461 26.4175C22.0517 25.736 23.4652 24.6992 24.5931 23.3868C25.721 22.0743 26.5334 20.5209 26.9679 18.8458C27.4025 17.1707 27.4476 15.4183 27.0999 13.723C26.7522 12.0277 26.0209 10.4346 24.962 9.06577C23.9032 7.69694 22.5449 6.58877 20.9914 5.82625C19.4379 5.06372 17.7304 4.66708 15.9998 4.66675Z" fill="#EBBC2E"/>
</svg>
