<svg width="22" height="21" viewBox="0 0 22 21" fill="none" xmlns="http://www.w3.org/2000/svg">
<mask id="mask0_718_311" style="mask-type:alpha" maskUnits="userSpaceOnUse" x="0" y="0" width="22" height="21">
<path d="M5.5 9.54431C5.5 7.09055 5.5 5.86281 6.30575 5.101C7.11058 4.33832 8.40767 4.33832 11 4.33832H13.75C16.3423 4.33832 17.6394 4.33832 18.4443 5.101C19.25 5.86281 19.25 7.09055 19.25 9.54431V13.8826C19.25 16.3364 19.25 17.5642 18.4443 18.326C17.6394 19.0886 16.3423 19.0886 13.75 19.0886H11C8.40767 19.0886 7.11058 19.0886 6.30575 18.326C5.5 17.5642 5.5 16.3364 5.5 13.8826V9.54431Z" stroke="#A7A7A7" stroke-width="1.5"/>
<path d="M5.5 16.4856C4.77065 16.4856 4.07118 16.2114 3.55546 15.7232C3.03973 15.2351 2.75 14.573 2.75 13.8826V8.67665C2.75 5.40468 2.75 3.76826 3.82433 2.75223C4.89775 1.73532 6.62658 1.73532 10.0833 1.73532H13.75C14.4793 1.73532 15.1788 2.00956 15.6945 2.49772C16.2103 2.98588 16.5 3.64796 16.5 4.33832" stroke="#A7A7A7" stroke-width="1.5"/>
</mask>
<g mask="url(#mask0_718_311)">
</g>
<path d="M5.5 9.54431C5.5 7.09055 5.5 5.86281 6.30575 5.101C7.11058 4.33832 8.40767 4.33832 11 4.33832H13.75C16.3423 4.33832 17.6394 4.33832 18.4443 5.101C19.25 5.86281 19.25 7.09055 19.25 9.54431V13.8826C19.25 16.3364 19.25 17.5642 18.4443 18.326C17.6394 19.0886 16.3423 19.0886 13.75 19.0886H11C8.40767 19.0886 7.11058 19.0886 6.30575 18.326C5.5 17.5642 5.5 16.3364 5.5 13.8826V9.54431Z" stroke="#A7A7A7" stroke-width="1.5"/>
<path d="M5.5 16.4856C4.77065 16.4856 4.07118 16.2114 3.55546 15.7232C3.03973 15.2351 2.75 14.573 2.75 13.8826V8.67665C2.75 5.40468 2.75 3.76826 3.82433 2.75223C4.89775 1.73532 6.62658 1.73532 10.0833 1.73532H13.75C14.4793 1.73532 15.1788 2.00956 15.6945 2.49772C16.2103 2.98588 16.5 3.64796 16.5 4.33832" stroke="#A7A7A7" stroke-width="1.5"/>
</svg>
