<svg width="31" height="31" viewBox="0 0 31 31" fill="none" xmlns="http://www.w3.org/2000/svg">
<path d="M23 12.0166L21.95 22.5141C21.7912 24.1054 21.7125 24.9004 21.35 25.5016C21.0321 26.0309 20.5645 26.4541 20.0062 26.7179C19.3725 27.0166 18.575 27.0166 16.975 27.0166H14.025C12.4262 27.0166 11.6275 27.0166 10.9938 26.7166C10.4351 26.453 9.96702 26.0298 9.64875 25.5004C9.28875 24.9004 9.20875 24.1054 9.04875 22.5141L8 12.0166M17.375 20.1416V13.8916M13.625 20.1416V13.8916M6.125 8.8916H11.8937M11.8937 8.8916L12.3763 5.5516C12.5163 4.9441 13.0212 4.5166 13.6012 4.5166H17.3988C17.9788 4.5166 18.4825 4.9441 18.6237 5.5516L19.1063 8.8916M11.8937 8.8916H19.1063M19.1063 8.8916H24.875" stroke="#ED3A3A" stroke-width="1.5" stroke-linecap="round" stroke-linejoin="round"/>
</svg>
