<svg width="23" height="23" viewBox="0 0 23 23" fill="none" xmlns="http://www.w3.org/2000/svg">
<path d="M14.9995 9.26901L14.0745 9.11526C14.0522 9.24956 14.0594 9.3871 14.0956 9.51834C14.1318 9.64958 14.1961 9.77136 14.2842 9.87521C14.3722 9.97906 14.4818 10.0625 14.6053 10.1197C14.7289 10.1769 14.8634 10.2065 14.9995 10.2065V9.26901ZM1.24951 9.26901V8.33151C1.00087 8.33151 0.762414 8.43028 0.586599 8.6061C0.410784 8.78191 0.312012 9.02037 0.312012 9.26901H1.24951ZM3.74951 22.7065H17.9495V20.8315H3.74951V22.7065ZM19.4495 8.33151H14.9995V10.2065H19.4495V8.33151ZM15.9245 9.42276L16.932 3.37901L15.082 3.07026L14.0745 9.11526L15.9245 9.42276ZM14.7745 0.831511H14.507V2.70651H14.7733L14.7745 0.831511ZM10.6058 2.91901L7.46201 7.63526L9.02201 8.67526L12.1658 3.95901L10.6058 2.91901ZM6.16201 8.33151H1.24951V10.2065H6.16201V8.33151ZM0.312012 9.26901V19.269H2.18701V9.26901H0.312012ZM21.3208 19.944L22.8208 12.444L20.9833 12.0753L19.4833 19.5753L21.3208 19.944ZM7.46201 7.63526C7.31939 7.84937 7.1261 8.02369 6.89932 8.14515C6.67254 8.26661 6.41927 8.3302 6.16201 8.33026V10.2053C7.31201 10.2053 8.38451 9.63151 9.02201 8.67526L7.46201 7.63526ZM16.932 3.37901C16.9841 3.06572 16.9673 2.7436 16.8829 2.43744C16.7985 2.13128 16.6484 1.84718 16.4431 1.60487C16.2378 1.36257 15.9822 1.16788 15.694 1.03433C15.4059 0.900775 15.0921 0.831567 14.7745 0.831511L14.7733 2.70651C14.8186 2.70662 14.8646 2.71659 14.9056 2.73571C14.9467 2.75483 14.9831 2.78266 15.0124 2.81726C15.0416 2.85187 15.063 2.89242 15.075 2.9361C15.0871 2.97979 15.0894 3.02556 15.082 3.07026L16.932 3.37901ZM19.4495 10.2053C20.437 10.2053 21.1745 11.1078 20.982 12.074L22.8208 12.4428C22.9202 11.9441 22.9079 11.4284 22.7845 10.9351C22.6612 10.4418 22.4299 9.98208 22.1075 9.58896C21.785 9.19583 21.3793 8.87914 20.9197 8.6617C20.4601 8.44426 19.958 8.33149 19.4495 8.33151V10.2053ZM17.9495 22.7065C18.7441 22.7067 19.5143 22.4303 20.1289 21.9266C20.7436 21.423 21.1647 20.7219 21.3208 19.9428L19.4833 19.574C19.4124 19.9285 19.2208 20.2475 18.9411 20.4765C18.6615 20.7056 18.311 20.8319 17.9495 20.8315V22.7065ZM14.507 0.831511C13.7353 0.831567 12.9756 1.02088 12.2953 1.38504C11.6149 1.74919 11.035 2.27568 10.607 2.91776L12.1658 3.95901C12.4227 3.57358 12.7708 3.25633 13.1793 3.03783C13.5877 2.81933 14.0438 2.70634 14.507 2.70651V0.831511ZM3.74951 20.8315C2.88701 20.8315 2.18701 20.1315 2.18701 19.269H0.312012C0.312012 20.1807 0.674176 21.055 1.31883 21.6997C1.96349 22.3443 2.83783 22.7065 3.74951 22.7065V20.8315Z" fill="#A7A7A7"/>
<path d="M6.24951 9.26901V21.769" stroke="#A7A7A7" stroke-width="1.5"/>
</svg>
