<svg width="30" height="30" viewBox="0 0 30 32" fill="none" xmlns="http://www.w3.org/2000/svg">
<path d="M6.5625 14C6.31386 14 6.0754 14.1054 5.89959 14.2929C5.72377 14.4804 5.625 14.7348 5.625 15V27C5.625 27.2652 5.72377 27.5196 5.89959 27.7071C6.0754 27.8946 6.31386 28 6.5625 28H23.4375C23.6861 28 23.9246 27.8946 24.1004 27.7071C24.2762 27.5196 24.375 27.2652 24.375 27V15C24.375 14.7348 24.2762 14.4804 24.1004 14.2929C23.9246 14.1054 23.6861 14 23.4375 14H6.5625ZM6.5625 12H23.4375C24.1834 12 24.8988 12.3161 25.4262 12.8787C25.9537 13.4413 26.25 14.2044 26.25 15V27C26.25 27.7956 25.9537 28.5587 25.4262 29.1213C24.8988 29.6839 24.1834 30 23.4375 30H6.5625C5.81658 30 5.10121 29.6839 4.57376 29.1213C4.04632 28.5587 3.75 27.7956 3.75 27V15C3.75 14.2044 4.04632 13.4413 4.57376 12.8787C5.10121 12.3161 5.81658 12 6.5625 12Z" fill="#3A3A3A"/>
<path d="M15 17C15.2486 17 15.4871 17.1054 15.6629 17.2929C15.8387 17.4804 15.9375 17.7348 15.9375 18V24C15.9375 24.2652 15.8387 24.5196 15.6629 24.7071C15.4871 24.8946 15.2486 25 15 25C14.7514 25 14.5129 24.8946 14.3371 24.7071C14.1613 24.5196 14.0625 24.2652 14.0625 24V18C14.0625 17.7348 14.1613 17.4804 14.3371 17.2929C14.5129 17.1054 14.7514 17 15 17ZM20.625 12V10C20.625 8.4087 20.0324 6.88258 18.9775 5.75736C17.9226 4.63214 16.4918 4 15 4C13.5082 4 12.0774 4.63214 11.0225 5.75736C9.96763 6.88258 9.375 8.4087 9.375 10V12H20.625ZM15 2C16.9891 2 18.8968 2.84285 20.3033 4.34315C21.7098 5.84344 22.5 7.87827 22.5 10V14H7.5V10C7.5 7.87827 8.29018 5.84344 9.6967 4.34315C11.1032 2.84285 13.0109 2 15 2Z" fill="#3A3A3A"/>
</svg>
