<svg width="30" height="30" viewBox="0 0 30 30" fill="none" xmlns="http://www.w3.org/2000/svg">
<path d="M24.5225 25.7291C24.5225 21.2266 22.5 17.5666 15 17.5666C7.50004 17.5666 5.47754 21.2266 5.47754 25.7291M15 15.1533C16.4431 15.1533 17.8271 14.58 18.8476 13.5595C19.868 12.5391 20.4413 11.1551 20.4413 9.712C20.4413 8.26889 19.868 6.88489 18.8476 5.86446C17.8271 4.84403 16.4431 4.27075 15 4.27075C13.5569 4.27075 12.1729 4.84403 11.1525 5.86446C10.1321 6.88489 9.55879 8.26889 9.55879 9.712C9.55879 11.1551 10.1321 12.5391 11.1525 13.5595C12.1729 14.58 13.5569 15.1533 15 15.1533Z" stroke="black" stroke-linecap="round" stroke-linejoin="round"/>
</svg>
