<svg width="30" height="30" viewBox="0 0 32 32" fill="none" xmlns="http://www.w3.org/2000/svg">
<path d="M18.0002 21.08C27.0002 21.08 29.4272 25.472 29.4272 30.875H6.57324C6.57324 25.472 9.00024 21.08 18.0002 21.08Z" stroke="#3A3A3A" stroke-width="1.5" stroke-linecap="round" stroke-linejoin="round"/>
<path d="M22.6173 16.2716C21.3928 17.4961 19.732 18.184 18.0002 18.184C16.2685 18.184 14.6077 17.4961 13.3832 16.2716C12.1587 15.047 11.4707 13.3862 11.4707 11.6545C11.4707 9.92277 12.1587 8.26197 13.3832 7.03745C14.6077 5.81293 16.2685 5.125 18.0002 5.125C19.732 5.125 21.3928 5.81293 22.6173 7.03745C23.8418 8.26197 24.5297 9.92277 24.5297 11.6545C24.5297 13.3862 23.8418 15.047 22.6173 16.2716Z" stroke="#3A3A3A" stroke-width="1.5" stroke-linecap="round" stroke-linejoin="round"/>
</svg>
