<svg width="25" height="30" viewBox="0 0 25 30" fill="none" xmlns="http://www.w3.org/2000/svg">
<path d="M6.4333 23.5088C6.77393 23.5088 7.05882 23.3706 7.28799 23.0944C7.51715 22.8181 7.63174 22.4744 7.63174 22.0631C7.63174 21.6519 7.51715 21.31 7.28799 21.0375C7.05882 20.765 6.77236 20.6275 6.42861 20.625C6.08486 20.6225 5.79945 20.7612 5.57236 21.0413C5.34528 21.3213 5.2307 21.6644 5.22861 22.0706C5.22653 22.4769 5.34215 22.8188 5.57549 23.0963C5.8057 23.3713 6.09163 23.5088 6.4333 23.5088ZM6.4333 16.4419C6.77393 16.4419 7.05882 16.3038 7.28799 16.0275C7.51715 15.7513 7.63174 15.4075 7.63174 14.9963C7.63174 14.585 7.51715 14.2431 7.28799 13.9706C7.05882 13.6981 6.77236 13.5606 6.42861 13.5581C6.08486 13.5556 5.79945 13.6937 5.57236 13.9725C5.34528 14.2512 5.2307 14.595 5.22861 15.0037C5.22653 15.4125 5.34215 15.7544 5.57549 16.0294C5.8057 16.3044 6.09163 16.4419 6.4333 16.4419ZM6.4333 9.375C6.77393 9.375 7.05882 9.23625 7.28799 8.95875C7.51715 8.68125 7.63174 8.33813 7.63174 7.92938C7.63174 7.52063 7.51715 7.17875 7.28799 6.90375C7.05882 6.62875 6.77236 6.49125 6.42861 6.49125C6.08486 6.49125 5.79945 6.62937 5.57236 6.90563C5.34528 7.18188 5.2307 7.52562 5.22861 7.93687C5.22653 8.34812 5.34215 8.69 5.57549 8.9625C5.8057 9.2375 6.09163 9.375 6.4333 9.375ZM11.238 23.0063H19.6521V21.1313H11.238V23.0063ZM11.238 15.9375H19.6521V14.0625H11.238V15.9375ZM11.238 8.86875H19.6521V6.99375H11.238V8.86875ZM2.52393 30C1.80518 30 1.20518 29.7113 0.723925 29.1338C0.242675 28.5562 0.00152995 27.8356 0.000488281 26.9719V3.02812C0.000488281 2.16562 0.241634 1.44562 0.723925 0.868125C1.20622 0.290625 1.80622 0.00125 2.52393 0H22.4771C23.1958 0 23.7958 0.289375 24.2771 0.868125C24.7583 1.44687 24.9994 2.16687 25.0005 3.02812V26.9719C25.0005 27.8344 24.7599 28.5544 24.2786 29.1319C23.7974 29.7094 23.1968 29.9988 22.4771 30H2.52393ZM2.52393 28.125H22.4771C22.7166 28.125 22.9369 28.005 23.138 27.765C23.339 27.525 23.439 27.2606 23.438 26.9719V3.02812C23.438 2.74062 23.338 2.47625 23.138 2.235C22.938 1.99375 22.7177 1.87375 22.4771 1.875H2.52393C2.28434 1.875 2.06403 1.995 1.86299 2.235C1.66195 2.475 1.56195 2.73937 1.56299 3.02812V26.9719C1.56299 27.2594 1.66299 27.5238 1.86299 27.765C2.06299 28.0063 2.2833 28.1262 2.52393 28.125Z" fill="black"/>
</svg>
