<svg width="30" height="30" viewBox="0 0 32 33" fill="none" xmlns="http://www.w3.org/2000/svg">
<path d="M29.0001 27.9606L21.4481 20.4086C23.2629 18.2299 24.1679 15.4355 23.9748 12.6065C23.7817 9.7776 22.5054 7.13202 20.4114 5.22014C18.3173 3.30827 15.5669 2.2773 12.7321 2.34171C9.89729 2.40612 7.19647 3.56096 5.19146 5.56597C3.18644 7.57098 2.03161 10.2718 1.9672 13.1066C1.90279 15.9414 2.93376 18.6919 4.84563 20.7859C6.75751 22.8799 9.40309 24.1562 12.232 24.3493C15.061 24.5424 17.8554 23.6374 20.0341 21.8226L27.5861 29.3746L29.0001 27.9606ZM4.00012 13.3746C4.00012 11.5946 4.52796 9.85454 5.51689 8.3745C6.50582 6.89445 7.91143 5.7409 9.55596 5.05971C11.2005 4.37852 13.0101 4.20029 14.7559 4.54756C16.5018 4.89483 18.1054 5.75199 19.3641 7.01067C20.6227 8.26934 21.4799 9.87299 21.8272 11.6188C22.1745 13.3646 21.9962 15.1742 21.315 16.8188C20.6338 18.4633 19.4803 19.8689 18.0002 20.8579C16.5202 21.8468 14.7801 22.3746 13.0001 22.3746C10.614 22.372 8.32633 21.4229 6.63908 19.7357C4.95182 18.0484 4.00276 15.7608 4.00012 13.3746Z" fill="#1B1967"/>
</svg>
