<svg width="28" height="28" viewBox="0 0 28 28" fill="none" xmlns="http://www.w3.org/2000/svg">
<path d="M2.04282 4.07605C1.76782 3.04605 2.82582 2.16605 3.78882 2.62505L25.2868 12.874C26.2358 13.326 26.2358 14.678 25.2868 15.13L3.78782 25.38C2.82482 25.838 1.76682 24.958 2.04182 23.928L4.69982 14.002L2.04282 4.07605ZM6.05082 14.752L3.63282 23.792L24.1678 14.002L3.63282 4.21205L6.05082 13.252H17.2498C17.4487 13.252 17.6395 13.3311 17.7802 13.4717C17.9208 13.6124 17.9998 13.8031 17.9998 14.002C17.9998 14.201 17.9208 14.3917 17.7802 14.5324C17.6395 14.673 17.4487 14.752 17.2498 14.752H6.05082Z" fill="#A7A7A7"/>
</svg>
