<svg width="30" height="31" viewBox="0 0 30 31" fill="none" xmlns="http://www.w3.org/2000/svg">
<g clip-path="url(#clip0_452_1121)">
<path d="M15.0838 9.36218C11.8338 9.36218 9.25049 12.0006 9.25049 15.3199C9.25049 18.6392 11.8338 21.2777 15.0838 21.2777C18.3338 21.2777 20.9172 18.6392 20.9172 15.3199C20.9172 12.0006 18.3338 9.36218 15.0838 9.36218ZM15.0838 19.5755C12.7505 19.5755 10.9172 17.703 10.9172 15.3199C10.9172 12.9368 12.7505 11.0644 15.0838 11.0644C17.4172 11.0644 19.2505 12.9368 19.2505 15.3199C19.2505 17.703 17.4172 19.5755 15.0838 19.5755Z" fill="black"/>
<path d="M27.3337 12.5113L25.0003 11.7453L24.5003 10.4687L25.667 8.25579C25.917 7.74512 25.8337 7.06424 25.417 6.63868L23.417 4.59603C23.0003 4.17048 22.3337 4.08537 21.8337 4.3407L19.667 5.53225L18.417 5.02158L17.667 2.63849C17.5003 2.12782 17.0003 1.70227 16.417 1.70227H13.5837C13.0003 1.70227 12.5003 2.12782 12.417 2.7236L11.667 5.10669C11.167 5.1918 10.7503 5.36203 10.3337 5.61736L8.16699 4.42581C7.66699 4.17048 7.00033 4.25559 6.58366 4.68114L4.58366 6.7238C4.16699 7.14935 4.08366 7.83023 4.33366 8.3409L5.41699 10.4687C5.25033 10.8942 5.08366 11.4049 4.91699 11.8304L2.58366 12.5964C2.08366 12.7666 1.66699 13.2773 1.66699 13.8731V16.7668C1.66699 17.3626 2.08366 17.8733 2.66699 18.0435L5.00033 18.8095L5.50033 20.0862L4.33366 22.299C4.08366 22.8097 4.16699 23.4906 4.58366 23.9161L6.58366 25.9588C7.00033 26.3843 7.66699 26.4694 8.16699 26.2141L10.3337 25.0226L11.5837 25.5332L12.3337 28.0014C12.5003 28.5121 13.0003 28.9377 13.5837 28.9377H16.417C17.0003 28.9377 17.5003 28.5121 17.667 28.0014L18.417 25.5332L19.667 25.0226L21.8337 26.2141C22.3337 26.4694 23.0003 26.3843 23.417 25.9588L25.417 23.9161C25.8337 23.4906 25.917 22.8097 25.667 22.299L24.5003 20.0862L25.0003 18.8095L27.417 18.0435C27.917 17.8733 28.3337 17.3626 28.3337 16.7668V13.8731C28.3337 13.2773 27.917 12.6815 27.3337 12.5113ZM26.667 16.5115L23.667 17.4477L23.5837 17.8733L22.8337 19.6606L22.5837 20.0862L24.0837 22.8948L22.417 24.597L19.667 23.065L19.2503 23.3204C18.667 23.6608 18.0837 23.9161 17.5003 24.0864L17.0837 24.1715L16.167 27.2354H13.8337L12.917 24.1715L12.5003 24.0864L10.7503 23.3204L10.3337 23.065L7.58366 24.597L5.91699 22.8948L7.41699 20.0862L7.16699 19.6606C6.83366 19.0648 6.58366 18.4691 6.41699 17.8733L6.33366 17.4477L3.33366 16.5115V14.1284L6.16699 13.2773L6.33366 12.8518C6.50033 12.1709 6.75033 11.5751 7.08366 10.9793L7.33366 10.5538L5.91699 7.74512L7.58366 6.04291L10.2503 7.5749L10.667 7.31957C11.2503 6.97913 11.8337 6.72379 12.5003 6.55357L12.917 6.38335L13.8337 3.40448H16.167L17.0837 6.38335L17.5003 6.55357C18.0837 6.72379 18.667 6.97913 19.2503 7.31957L19.667 7.5749L22.417 6.04291L24.0837 7.74512L22.5837 10.5538L22.8337 10.9793C23.167 11.5751 23.417 12.1709 23.5837 12.7666L23.667 13.1922L26.667 14.1284V16.5115Z" fill="black"/>
</g>
<defs>
<clipPath id="clip0_452_1121">
<rect width="30" height="30.6398" fill="white" transform="translate(0.000488281)"/>
</clipPath>
</defs>
</svg>
