<svg width="30" height="30" viewBox="0 0 30 30" fill="none" xmlns="http://www.w3.org/2000/svg">
<path d="M20.8335 5.93749H23.3335M23.3335 5.93749H25.8335M23.3335 5.93749V8.33333M23.3335 5.93749V3.33333M22.856 26.5625C22.856 22.06 20.8335 18.4 13.3335 18.4C5.83353 18.4 3.81104 22.06 3.81104 26.5625H22.856ZM13.3335 15.9867C14.7766 15.9867 16.1606 15.4134 17.1811 14.393C18.2015 13.3725 18.7748 11.9885 18.7748 10.5454C18.7748 9.1023 18.2015 7.7183 17.1811 6.69787C16.1606 5.67743 14.7766 5.10416 13.3335 5.10416C11.8904 5.10416 10.5064 5.67743 9.48599 6.69787C8.46556 7.7183 7.89229 9.1023 7.89229 10.5454C7.89229 11.9885 8.46556 13.3725 9.48599 14.393C10.5064 15.4134 11.8904 15.9867 13.3335 15.9867Z" stroke="#A7A7A7" stroke-width="1.5" stroke-linecap="round" stroke-linejoin="round"/>
</svg>
