<svg width="27" height="27" viewBox="0 0 30 30" fill="none" xmlns="http://www.w3.org/2000/svg">
<path d="M18.75 12.5L17.825 12.3463C17.8027 12.4806 17.8099 12.6181 17.8461 12.7494C17.8823 12.8806 17.9466 13.0024 18.0347 13.1062C18.1227 13.2101 18.2323 13.2935 18.3558 13.3507C18.4793 13.4079 18.6139 13.4376 18.75 13.4375V12.5ZM5 12.5V11.5625C4.75136 11.5625 4.5129 11.6613 4.33709 11.8371C4.16127 12.0129 4.0625 12.2514 4.0625 12.5H5ZM7.5 25.9375H21.7V24.0625H7.5V25.9375ZM23.2 11.5625H18.75V13.4375H23.2V11.5625ZM19.675 12.6538L20.6825 6.61003L18.8325 6.30128L17.825 12.3463L19.675 12.6538ZM18.525 4.06253H18.2575V5.93753H18.5238L18.525 4.06253ZM14.3562 6.15003L11.2125 10.8663L12.7725 11.9063L15.9162 7.19003L14.3562 6.15003ZM9.9125 11.5625H5V13.4375H9.9125V11.5625ZM4.0625 12.5V22.5H5.9375V12.5H4.0625ZM25.0712 23.175L26.5712 15.675L24.7338 15.3063L23.2337 22.8063L25.0712 23.175ZM11.2125 10.8663C11.0699 11.0804 10.8766 11.2547 10.6498 11.3762C10.423 11.4976 10.1698 11.5612 9.9125 11.5613V13.4363C11.0625 13.4363 12.135 12.8625 12.7725 11.9063L11.2125 10.8663ZM20.6825 6.61003C20.7346 6.29674 20.7178 5.97462 20.6334 5.66846C20.549 5.3623 20.3989 5.0782 20.1936 4.83589C19.9883 4.59359 19.7326 4.3989 19.4445 4.26535C19.1564 4.13179 18.8426 4.06258 18.525 4.06253L18.5238 5.93753C18.5691 5.93764 18.6151 5.9476 18.6561 5.96673C18.6972 5.98585 18.7336 6.01368 18.7629 6.04828C18.7921 6.08288 18.8135 6.12343 18.8255 6.16712C18.8376 6.21081 18.8399 6.25658 18.8325 6.30128L20.6825 6.61003ZM23.2 13.4363C24.1875 13.4363 24.925 14.3388 24.7325 15.305L26.5712 15.6738C26.6707 15.1751 26.6583 14.6594 26.535 14.1661C26.4117 13.6729 26.1804 13.2131 25.8579 12.82C25.5355 12.4268 25.1298 12.1102 24.6702 11.8927C24.2106 11.6753 23.7085 11.5625 23.2 11.5625V13.4363ZM21.7 25.9375C22.4946 25.9377 23.2648 25.6613 23.8794 25.1576C24.4941 24.654 24.9152 23.9529 25.0712 23.1738L23.2337 22.805C23.1629 23.1595 22.9713 23.4785 22.6916 23.7076C22.412 23.9366 22.0615 24.0629 21.7 24.0625V25.9375ZM18.2575 4.06253C17.4858 4.06259 16.7261 4.2519 16.0458 4.61605C15.3654 4.98021 14.7855 5.5067 14.3575 6.14878L15.9162 7.19003C16.1732 6.8046 16.5213 6.48735 16.9298 6.26885C17.3382 6.05035 17.7943 5.93736 18.2575 5.93753V4.06253ZM7.5 24.0625C6.6375 24.0625 5.9375 23.3625 5.9375 22.5H4.0625C4.0625 23.4117 4.42466 24.2861 5.06932 24.9307C5.71398 25.5754 6.58832 25.9375 7.5 25.9375V24.0625Z" fill="#ED3A3A"/>
<path d="M10 12.5V25" stroke="#ED3A3A" stroke-width="1.5"/>
</svg>
