<svg width="30" height="30" viewBox="0 0 33 33" fill="none" xmlns="http://www.w3.org/2000/svg">
<path d="M25.0002 7.125H28.0002H31.0002M27.4272 31.875C27.4272 26.472 25.0002 22.08 16.0002 22.08C7.00024 22.08 4.57324 26.472 4.57324 31.875H27.4272ZM16.0002 19.184C17.732 19.184 19.3928 18.4961 20.6173 17.2716C21.8418 16.047 22.5297 14.3862 22.5297 12.6545C22.5297 10.9228 21.8418 9.26197 20.6173 8.03745C19.3928 6.81293 17.732 6.125 16.0002 6.125C14.2685 6.125 12.6077 6.81293 11.3832 8.03745C10.1587 9.26197 9.47074 10.9228 9.47074 12.6545C9.47074 14.3862 10.1587 16.047 11.3832 17.2716C12.6077 18.4961 14.2685 19.184 16.0002 19.184Z" stroke="#1B1967" stroke-width="1.5" stroke-linecap="round" stroke-linejoin="round"/>
</svg>
