<svg width="26" height="23" viewBox="0 0 26 23" fill="none" xmlns="http://www.w3.org/2000/svg">
<path d="M3.10105 1.40308L23.1011 21.4031M18.7261 17.3481C17.0348 18.2593 15.1236 18.9031 13.1011 18.9031C8.68855 18.9031 4.80855 15.8381 2.5848 13.6268C1.9973 13.0431 1.70355 12.7518 1.5173 12.1781C1.38355 11.7693 1.38355 11.0368 1.5173 10.6281C1.7048 10.0543 1.99855 9.76183 2.58605 9.17808C3.7073 8.06308 5.24855 6.73308 7.06605 5.68683M22.4761 14.6956C22.8923 14.3293 23.2736 13.9681 23.6161 13.6281L23.6198 13.6243C24.2048 13.0418 24.4986 12.7493 24.6848 12.1793C24.8186 11.7706 24.8186 11.0368 24.6848 10.6281C24.4973 10.0556 24.2048 9.76308 23.6173 9.17933C21.3923 6.96808 17.5148 3.90308 13.1011 3.90308C12.6786 3.90308 12.2623 3.93058 11.8511 3.98308M14.7548 13.2781C14.2706 13.7056 13.6398 13.9292 12.9944 13.9019C12.3491 13.8746 11.7394 13.5986 11.293 13.1317C10.8466 12.6648 10.5983 12.0433 10.6 11.3974C10.6018 10.7515 10.8534 10.1313 11.3023 9.66683" stroke="black" stroke-width="2" stroke-linecap="round" stroke-linejoin="round"/>
</svg>
