<svg width="24" height="26" viewBox="0 0 24 26" fill="none" xmlns="http://www.w3.org/2000/svg">
<path d="M17.8333 3.93749H20.3333M20.3333 3.93749H22.8333M20.3333 3.93749V6.33333M20.3333 3.93749V1.33333M19.8558 24.5625C19.8558 20.06 17.8333 16.4 10.3333 16.4C2.83329 16.4 0.810791 20.06 0.810791 24.5625H19.8558ZM10.3333 13.9867C11.7764 13.9867 13.1604 13.4134 14.1808 12.393C15.2013 11.3725 15.7745 9.98852 15.7745 8.54541C15.7745 7.1023 15.2013 5.7183 14.1808 4.69787C13.1604 3.67743 11.7764 3.10416 10.3333 3.10416C8.89018 3.10416 7.50618 3.67743 6.48575 4.69787C5.46531 5.7183 4.89204 7.1023 4.89204 8.54541C4.89204 9.98852 5.46531 11.3725 6.48575 12.393C7.50618 13.4134 8.89018 13.9867 10.3333 13.9867Z" stroke="#A7A7A7" stroke-width="1.5" stroke-linecap="round" stroke-linejoin="round"/>
</svg>
