<svg width="26" height="18" viewBox="0 0 26 18" fill="none" xmlns="http://www.w3.org/2000/svg">
<path d="M2.58578 10.8019C4.81078 13.0131 8.68953 16.0769 13.102 16.0769C17.5145 16.0769 21.3945 13.0131 23.6183 10.8019C24.2058 10.2181 24.4995 9.92688 24.6858 9.35313C24.8195 8.94438 24.8195 8.21188 24.6858 7.80313C24.4983 7.23063 24.2045 6.93813 23.6183 6.35438C21.3933 4.14312 17.5158 1.07812 13.102 1.07812C8.68953 1.07812 4.80953 4.14312 2.58578 6.35438C1.99828 6.93813 1.70453 7.22938 1.51828 7.80313C1.38453 8.21188 1.38453 8.94438 1.51828 9.35313C1.70578 9.92563 1.99828 10.2181 2.58578 10.8019Z" stroke="black" stroke-width="2" stroke-linecap="round" stroke-linejoin="round"/>
<path d="M10.6016 8.57812C10.6016 9.24117 10.865 9.87705 11.3338 10.3459C11.8026 10.8147 12.4385 11.0781 13.1016 11.0781C13.7646 11.0781 14.4005 10.8147 14.8693 10.3459C15.3382 9.87705 15.6016 9.24117 15.6016 8.57812C15.6016 7.91508 15.3382 7.2792 14.8693 6.81036C14.4005 6.34152 13.7646 6.07812 13.1016 6.07812C12.4385 6.07812 11.8026 6.34152 11.3338 6.81036C10.865 7.2792 10.6016 7.91508 10.6016 8.57812Z" stroke="black" stroke-width="2" stroke-linecap="round" stroke-linejoin="round"/>
</svg>
